{
  "asset": {
    "version": "2.0",
    "generator": "Sketchup glTF Exporter v1.2.6 by Centaur"
  },
  "scene": 0,
  "scenes": [
    {
      "nodes": [0]
    }
  ],
  "samplers": [{}],
  "nodes": [
    {
      "name": "root",
      "children": [1, 2],
      "mesh": 2
    },
    {
      "mesh": 0
    },
    {
      "mesh": 1
    }
  ],
  "materials": [
    {
      "pbrMetallicRoughness": {
        "baseColorFactor": [1.0, 1.0, 1.0, 1.0],
        "metallicFactor": 0.1,
        "roughnessFactor": 0.9,
        "baseColorFactor": [0, 0, 0, 1.0],
        "metallicFactor": 0,
        "roughnessFactor": 0.26391006097560976,
        "roughnessFactor": 0.4
      },
      "name": "material_0",
      "doubleSided": true
    },
    {
      "pbrMetallicRoughness": {
        "baseColorfactor": [1.0, 0.766, 0.336, 1.0],
        "baseColorFactor": [1.0, 0.6121, 0.0278, 1.0],
        "metallicFactor": 1,
        "roughnessFactor": 0.1
      },
      "name": "gold"
    }
  ],
  "meshes": [
    {
      "primitives": [
        {
          "attributes": {
            "POSITION": 0,
            "NORMAL": 1
          },
          "indices": 2,
          "mode": 4,
          "material": 1
        }
      ]
    },
    {
      "primitives": [
        {
          "attributes": {
            "POSITION": 0,
            "NORMAL": 1
          },
          "indices": 3,
          "mode": 4,
          "material": 0
        }
      ]
    },
    {
      "primitives": [
        {
          "attributes": {
            "POSITION": 0,
            "NORMAL": 1
          },
          "indices": 4,
          "mode": 4,
          "material": 0
        }
      ]
    }
  ],
  "accessors": [
    {
      "bufferView": 0,
      "componentType": 5126,
      "count": 26089,
      "type": "VEC3",
      "min": [-1.5286328164664178, -0.5500595881350836, -0.7020651515544403],
      "max": [2.387039888472772, 2.648985791597966, 2.638118120715239]
    },
    {
      "bufferView": 1,
      "componentType": 5126,
      "count": 26089,
      "type": "VEC3",
      "min": [-0.9999955321224755, -0.9999791134526199, -0.9999819319121777],
      "max": [0.9998832697261231, 0.9999961759347112, 0.9998550617904007]
    },
    {
      "bufferView": 2,
      "componentType": 5123,
      "count": 17469,
      "type": "SCALAR"
    },
    {
      "bufferView": 2,
      "componentType": 5123,
      "count": 133554,
      "type": "SCALAR",
      "byteOffset": 34938
    },
    {
      "bufferView": 2,
      "componentType": 5123,
      "count": 6,
      "type": "SCALAR",
      "byteOffset": 302046
    }
  ],
  "bufferViews": [
    {
      "buffer": 0,
      "byteLength": 313068,
      "target": 34962,
      "byteStride": 12
    },
    {
      "buffer": 0,
      "byteOffset": 313068,
      "byteLength": 313068,
      "target": 34962,
      "byteStride": 12
    },
    {
      "buffer": 0,
      "byteOffset": 626136,
      "byteLength": 302058,
      "target": 34963
    }
  ],
  "buffers": [
    {
      "uri": "data:application/octet-stream;base64,",
      "byteLength": 928194
    }
  ]
}
